<?xml version="1.0" encoding="utf-8"?>
<!-- Generator: Adobe Illustrator 23.1.0, SVG Export Plug-In . SVG Version: 6.00 Build 0)  -->
<svg version="1.1" id="Слой_1" xmlns="http://www.w3.org/2000/svg" xmlns:xlink="http://www.w3.org/1999/xlink" x="0px" y="0px"
	 width="12px" height="12px" viewBox="0 0 12 12" style="enable-background:new 0 0 12 12;" xml:space="preserve">
<style type="text/css">
	.st0{fill:#FFFFFF;}
	.st1{fill:#202121;}
</style>
<g>
	<g id="ic_fluent_checkbox_checked_24_regular">
		<rect x="1" y="1" class="st0" width="10" height="10"/>
		<path class="st1" d="M10.2,0c1,0,1.8,0.8,1.8,1.8v8.3c0,1-0.8,1.8-1.8,1.8H1.8c-1,0-1.8-0.8-1.8-1.8V1.8C0,0.8,0.8,0,1.8,0H10.2z
			 M10.2,1H1.8C1.4,1,1,1.4,1,1.8v8.3C1,10.6,1.4,11,1.8,11h8.3c0.5,0,0.8-0.4,0.8-0.8V1.8C11,1.4,10.6,1,10.2,1z M4.7,7.6L9,3.3
			c0.2-0.2,0.5-0.2,0.7,0c0.2,0.2,0.2,0.5,0,0.7l0,0.1L5,8.7c-0.2,0.2-0.5,0.2-0.7,0l-0.1,0l-2-2C2.1,6.5,2.1,6.2,2.3,6
			c0.2-0.2,0.5-0.2,0.7,0L3,6L4.7,7.6L9,3.3L4.7,7.6z"/>
	</g>
</g>
<rect x="2" y="2" class="st0" width="8" height="7"/>
</svg>
